<?xml version="1.0" standalone="no"?>
<svg viewBox="0 0 200 200" xmlns="http://www.w3.org/2000/svg">
  <path fill="#FF8C04" d="M43.1,-67.3C55,-59.4,63.2,-46,71.2,-31.6C79.2,-17.2,87,-1.8,85.7,12.8C84.4,27.4,73.9,41.2,62,52.4C50.2,63.5,36.9,72.1,21.7,78.7C6.6,85.3,-10.6,89.9,-25.5,85.9C-40.4,82,-53,69.4,-63.8,55.8C-74.6,42.3,-83.6,27.8,-87.8,11.5C-92,-4.9,-91.3,-23.1,-82.8,-36.2C-74.3,-49.2,-58,-57.1,-42.9,-63.5C-27.8,-70,-13.9,-75,0.8,-76.3C15.6,-77.6,31.2,-75.2,43.1,-67.3Z" transform="translate(100 100)" />
</svg>
