<svg width="28" height="28" viewBox="0 0 28 28" fill="none" xmlns="http://www.w3.org/2000/svg">
<g id="BuyButton">
<g id="SVGRepo_iconCarrier">
<path id="Vector" fill-rule="evenodd" clip-rule="evenodd" d="M2.33329 2.33334C1.68897 2.33334 1.16663 2.85568 1.16663 3.5C1.16663 4.14433 1.68897 4.66667 2.33329 4.66667H2.88444C3.41055 4.66667 3.87157 5.01879 4.00999 5.52636L4.49562 7.30698L6.99996 16.4896V18.6667C6.99996 19.4758 7.27451 20.2208 7.73552 20.8136C7.27791 21.3285 6.99996 22.0068 6.99996 22.75C6.99996 24.3608 8.3058 25.6667 9.91663 25.6667C11.5275 25.6667 12.8333 24.3608 12.8333 22.75C12.8333 22.5503 12.8132 22.3552 12.775 22.1667H16.3916C16.3534 22.3552 16.3333 22.5503 16.3333 22.75C16.3333 24.3608 17.6391 25.6667 19.25 25.6667C20.8608 25.6667 22.1666 24.3608 22.1666 22.75C22.1666 22.3668 22.0927 22.0008 21.9584 21.6655C22.0896 21.4767 22.1666 21.2473 22.1666 21C22.1666 20.3557 21.6443 19.8333 21 19.8333H19.25H10.5C9.85563 19.8333 9.33329 19.311 9.33329 18.6667V17.5H21.2753C22.3277 17.5 23.2499 16.7956 23.5266 15.7801L25.4341 8.78014C25.8385 7.29592 24.7212 5.83334 23.1828 5.83334H6.51227L6.26111 4.91243C5.84582 3.38972 4.46276 2.33334 2.88444 2.33334H2.33329ZM19.25 22.1667C18.9278 22.1667 18.6666 22.4279 18.6666 22.75C18.6666 23.0721 18.9278 23.3333 19.25 23.3333C19.5721 23.3333 19.8333 23.0721 19.8333 22.75C19.8333 22.4279 19.5721 22.1667 19.25 22.1667ZM21.2753 15.1667H9.05773L7.14863 8.16667H23.1828L21.2753 15.1667ZM9.91663 22.1667C9.59446 22.1667 9.33329 22.4279 9.33329 22.75C9.33329 23.0721 9.59446 23.3333 9.91663 23.3333C10.2388 23.3333 10.5 23.0721 10.5 22.75C10.5 22.4279 10.2388 22.1667 9.91663 22.1667Z" fill="black"/>
</g>
</g>
</svg>
