<svg width="41" height="39" viewBox="0 0 41 39" fill="none" xmlns="http://www.w3.org/2000/svg">
<g id="CartIcon">
<g id="SVGRepo_iconCarrier">
<path id="Vector" fill-rule="evenodd" clip-rule="evenodd" d="M3.41671 3.25C2.47323 3.25 1.70837 3.97754 1.70837 4.875C1.70837 5.77245 2.47323 6.5 3.41671 6.5H4.22374C4.99411 6.5 5.66918 6.99046 5.87187 7.69743L6.58297 10.1776L10.25 22.9676V26C10.25 27.1269 10.6521 28.1647 11.3271 28.9903C10.657 29.7076 10.25 30.6524 10.25 31.6875C10.25 33.9311 12.1622 35.75 14.5209 35.75C16.8796 35.75 18.7917 33.9311 18.7917 31.6875C18.7917 31.4093 18.7623 31.1376 18.7063 30.875H24.0021C23.9461 31.1376 23.9167 31.4093 23.9167 31.6875C23.9167 33.9311 25.8288 35.75 28.1875 35.75C30.5462 35.75 32.4584 33.9311 32.4584 31.6875C32.4584 31.1537 32.3501 30.6439 32.1534 30.1769C32.3456 29.914 32.4584 29.5945 32.4584 29.25C32.4584 28.3525 31.6936 27.625 30.75 27.625H28.1875H15.375C14.4316 27.625 13.6667 26.8975 13.6667 26V24.375H31.1532C32.6943 24.375 34.0446 23.3938 34.4498 21.9794L37.2429 12.2295C37.835 10.1622 36.1989 8.125 33.9463 8.125H9.53592L9.16815 6.84231C8.56006 4.72139 6.53486 3.25 4.22374 3.25H3.41671ZM28.1875 30.875C27.7159 30.875 27.3334 31.2388 27.3334 31.6875C27.3334 32.1362 27.7159 32.5 28.1875 32.5C28.6592 32.5 29.0417 32.1362 29.0417 31.6875C29.0417 31.2388 28.6592 30.875 28.1875 30.875ZM31.1532 21.125H13.2632L10.4677 11.375H33.9463L31.1532 21.125ZM14.5209 30.875C14.0491 30.875 13.6667 31.2388 13.6667 31.6875C13.6667 32.1362 14.0491 32.5 14.5209 32.5C14.9926 32.5 15.375 32.1362 15.375 31.6875C15.375 31.2388 14.9926 30.875 14.5209 30.875Z" fill="black"/>
</g>
</g>
</svg>
