<svg width="45" height="40" viewBox="0 0 45 40" fill="none" xmlns="http://www.w3.org/2000/svg">
<g id="chevronDown 1" clip-path="url(#clip0_128_20)">
<g id="Layer 2">
<g id="chevron-down">
<path id="Vector" d="M22.5 25.8334C22.2532 25.8346 22.0086 25.7926 21.7802 25.7096C21.5517 25.6267 21.344 25.5045 21.1688 25.35L13.6688 18.6834C13.4939 18.528 13.3553 18.3435 13.2607 18.1404C13.166 17.9374 13.1173 17.7198 13.1173 17.5C13.1173 17.2803 13.166 17.0626 13.2607 16.8596C13.3553 16.6566 13.4939 16.4721 13.6688 16.3167C13.8436 16.1613 14.0511 16.038 14.2795 15.9539C14.508 15.8698 14.7528 15.8265 15 15.8265C15.2472 15.8265 15.4921 15.8698 15.7205 15.9539C15.9489 16.038 16.1564 16.1613 16.3313 16.3167L22.5 21.8334L28.6875 16.5334C28.86 16.3629 29.0702 16.2259 29.305 16.1309C29.5397 16.0359 29.794 15.985 30.052 15.9814C30.3099 15.9777 30.5658 16.0215 30.8039 16.1098C31.0419 16.1981 31.2569 16.3291 31.4354 16.4947C31.6139 16.6602 31.752 16.8567 31.8411 17.0719C31.9303 17.287 31.9685 17.5162 31.9535 17.7451C31.9384 17.974 31.8704 18.1977 31.7536 18.4021C31.6369 18.6066 31.474 18.7874 31.275 18.9334L23.775 25.3667C23.4321 25.6605 22.9763 25.8274 22.5 25.8334Z" fill="#FF8C04"/>
</g>
</g>
</g>
<defs>
<clipPath id="clip0_128_20">
<rect width="45" height="40" fill="white"/>
</clipPath>
</defs>
</svg>
