<svg width="59" height="44" viewBox="0 0 59 44" fill="none" xmlns="http://www.w3.org/2000/svg">
<g id="DeliveryIcon" clip-path="url(#clip0_52_514)">
<g id="SVGRepo_iconCarrier">
<path id="Vector" d="M0.843116 34.8814C0.716716 35.429 0.649658 35.9996 0.649658 36.5862C0.649658 40.6806 3.90191 44 7.91468 44C11.7729 44 14.9293 40.9305 15.1656 37.0541L12.7127 36.6833C12.6628 39.3397 10.529 41.4845 7.91468 41.4845C5.26841 41.4845 3.11502 39.2872 3.11502 36.5862C3.11502 36.1239 3.17818 35.6774 3.29517 35.2532L0.843116 34.8814Z" fill="white" stroke="white"/>
<path id="Vector_2" d="M51.0526 34.675C50.6931 34.439 50.2651 34.302 49.8057 34.302C49.1517 34.302 48.561 34.5795 48.1406 35.0253C47.8804 35.3015 47.6853 35.6423 47.5812 36.0218C47.5256 36.2243 47.4958 36.438 47.4958 36.6587C47.4958 37.9605 48.5299 39.0157 49.8057 39.0157C51.0813 39.0157 52.1154 37.9605 52.1154 36.6587C52.1154 36.438 52.0856 36.2243 52.03 36.0218C51.8757 35.46 51.5224 34.9829 51.0526 34.675Z" fill="white" stroke="white"/>
<path id="Vector_3" d="M10.2171 36.6585C10.2171 36.5367 10.2078 36.4165 10.1906 36.2996L5.82618 35.6374C5.76769 35.76 5.72013 35.8881 5.68342 36.0218C5.62806 36.2247 5.59839 36.438 5.59839 36.6585C5.59839 37.9604 6.6318 39.0157 7.90776 39.0157C9.18372 39.0157 10.2171 37.9604 10.2171 36.6585Z" fill="white" stroke="white"/>
<path id="Vector_4" d="M54.4224 24.1928C54.4567 21.2077 53.8406 18.6794 51.7277 18.4048C46.3035 17.7005 36.1449 17.1975 36.6386 20.8201C37.1315 24.4427 41.471 28.569 40.3861 30.5457C39.3012 32.5217 23.8175 32.3928 21.4504 30.9843C19.0833 29.5757 16.2234 19.5117 18.3931 13.271C19.1479 11.0978 19.3762 9.19572 19.3545 7.63702H21.6979C21.933 7.91391 22.2793 8.08986 22.6666 8.08986H27.0718C27.7799 8.08986 28.3539 7.50415 28.3539 6.78167C28.3539 6.05911 27.7799 5.4734 27.0718 5.4734H22.6666C22.2793 5.4734 21.933 5.64935 21.6979 5.92624H19.166C18.9596 5.20853 18.5655 4.57654 18.0429 4.08572C17.869 3.92257 17.6818 3.77534 17.4813 3.64559C17.1015 1.52401 15.7889 0 14.1846 0C12.2738 0 10.7772 2.16145 10.7772 4.91978C10.7772 7.28097 11.8729 9.20367 13.3868 9.70894C12.6052 10.7539 11.5704 11.9293 10.207 13.2409C5.41038 17.8534 4.63672 23.522 4.68513 26.9376C2.50241 27.8631 0.764169 29.7453 0.0460344 32.1479C-0.141405 32.7748 0.263483 33.4252 0.898792 33.5218L1.27299 33.5786L3.85924 33.9709L5.24431 34.181L8.49664 34.6744L12.5429 35.2888L15.1268 35.6803L15.5018 35.7372C16.1332 35.8331 16.7095 35.3379 16.7092 34.6866C16.7092 34.6825 16.7092 34.6784 16.7092 34.6744H42.8772C42.704 35.3054 42.6112 35.9707 42.6112 36.6583C42.6112 40.713 45.8323 43.9997 49.806 43.9997C53.779 43.9997 57 40.713 57 36.6583C57 35.9707 56.9072 35.3054 56.7341 34.6744H56.8284C57.6356 34.6744 58.3578 34.1515 58.6152 33.37C58.8577 32.6346 58.9888 31.8475 58.9888 31.0287C58.9889 27.9212 57.0959 25.2639 54.4224 24.1928ZM14.736 7.59766C14.5573 7.7608 14.3678 7.8499 14.1845 7.8499C13.4966 7.8499 12.7269 6.59647 12.7269 4.91969C12.7269 3.24292 13.4966 1.9894 14.1845 1.9894C14.8623 1.9894 15.6203 3.20788 15.6414 4.84885C15.6422 4.87194 15.6422 4.89582 15.6422 4.91969C15.6422 6.14925 15.2281 7.15122 14.736 7.59766ZM49.806 41.5018C47.1887 41.5018 45.0594 39.3292 45.0594 36.6585C45.0594 35.9526 45.2083 35.2809 45.4759 34.6745H45.5492C45.536 34.6507 45.5219 34.6259 45.5087 34.6021C46.2683 32.9572 47.9093 31.8159 49.806 31.8159C51.0851 31.8159 52.2472 32.334 53.1013 33.1768C53.5325 33.6018 53.8851 34.1095 54.1347 34.6745C54.403 35.2809 54.5519 35.9526 54.5519 36.6585C54.5519 39.3292 52.4226 41.5018 49.806 41.5018Z" fill="white" stroke="white"/>
<path id="Vector_5" d="M25.3093 30.4336C26.7374 30.5801 28.5935 30.6843 30.8047 30.6843C35.5349 30.6843 38.4651 30.1869 39.2341 29.7945C39.2302 29.6696 39.1888 29.4023 38.9814 28.9104C38.71 28.2705 38.2694 27.5114 37.7967 26.7052C35.0249 28.8005 30.7251 28.3287 28.3541 28.4926C26.6173 28.6127 25.7461 29.54 25.3093 30.4336Z" fill="white" stroke="white"/>
<path id="Vector_6" d="M52.3969 17.1601L51.4165 15.7977C50.7879 14.9246 49.8177 14.3772 48.7593 14.2976C46.9858 14.1639 44.1476 14.0565 41.8742 14.4599C39.8042 14.8276 38.8246 16.175 38.3668 17.2493C39.8354 16.7813 41.8468 16.5514 44.4307 16.5514C47.4989 16.5514 50.4245 16.8721 51.8954 17.0631C52.0608 17.0845 52.2284 17.1164 52.3969 17.1601Z" fill="white" stroke="white"/>
</g>
</g>
<defs>
<clipPath id="clip0_52_514">
<rect width="59" height="44" fill="white"/>
</clipPath>
</defs>
</svg>
