<svg width="44" height="44" viewBox="0 0 44 44" fill="none" xmlns="http://www.w3.org/2000/svg">
<g id="OfertasIcon" clip-path="url(#clip0_57_1646)">
<g id="SVGRepo_iconCarrier">
<g id="Group">
<path id="Vector" d="M18.7334 21.1583L18.4202 23.7875L20.0511 23.4671L18.7649 21.1522L18.7334 21.1583Z" fill="black"/>
<path id="Vector_2" d="M44 21.9999L38.5603 17.5628L41.0527 11.0005L34.1226 9.87726L33 2.94786L26.4376 5.44022L22 0.000549316L17.5624 5.44031L11.0006 2.94786L9.8774 9.87735L2.948 11.0005L5.43976 17.5629L0 21.9999L5.43976 26.437L2.948 32.9999L9.8774 34.1231L11.0006 41.0525L17.5624 38.5601L22 43.9999L26.4377 38.5602L33 41.0526L34.1225 34.1231L41.0526 33L38.5602 26.4371L44 21.9999ZM13.3004 27.6523C12.1996 27.8692 11.0443 27.6432 10.39 27.2221C10.3403 27.1888 10.3046 27.1198 10.3452 27.0477L10.9564 25.9893C10.9879 25.9281 11.0503 25.9159 11.1097 25.9474C11.6507 26.2297 12.354 26.4581 13.1017 26.3109C13.8383 26.1661 14.1867 25.742 14.0892 25.2434C14.0068 24.8278 13.7063 24.6176 12.8436 24.6685L12.4596 24.6897C10.9875 24.7739 10.0556 24.2571 9.81028 23.0109C9.55522 21.7127 10.3616 20.6585 11.8883 20.3586C12.8225 20.1745 13.75 20.2841 14.4315 20.624C14.5024 20.6537 14.5205 20.6924 14.483 20.7754L14.0347 21.8453C14.0038 21.9053 13.9535 21.926 13.8965 21.9047C13.2865 21.6582 12.7303 21.5734 12.1493 21.6878C11.5259 21.8102 11.2679 22.1955 11.3557 22.642C11.435 23.0467 11.7761 23.2497 12.6098 23.2042L12.9932 23.1831C14.4854 23.0945 15.385 23.6077 15.6364 24.8848C15.8873 26.1619 15.1281 27.293 13.3004 27.6523ZM22.8748 25.6513L21.525 25.9172C21.4523 25.9312 21.4045 25.9087 21.3693 25.839L20.7217 24.6837L18.2499 25.1696L18.0978 26.4824C18.0918 26.5599 18.0566 26.5987 17.984 26.6132L16.6239 26.8803C16.5512 26.8949 16.5222 26.8573 16.5306 26.7907L17.6126 19.4595C17.6211 19.3923 17.6544 19.3433 17.7271 19.3293L19.0357 19.0718C19.1084 19.0573 19.158 19.0906 19.1914 19.1493L22.9269 25.5329C22.9597 25.5913 22.9475 25.6373 22.8748 25.6513ZM28.681 24.5092L24.081 25.4143C24.0186 25.4264 23.9689 25.3925 23.9562 25.3308L22.6082 18.4776C22.5961 18.4145 22.63 18.365 22.6924 18.3528L24.0113 18.0936C24.0737 18.0808 24.1227 18.1142 24.1349 18.1771L25.2235 23.712C25.232 23.7532 25.2569 23.7701 25.298 23.7623L28.4132 23.1497C28.4762 23.137 28.5258 23.1697 28.538 23.2321L28.7645 24.3851C28.7768 24.4474 28.744 24.4971 28.681 24.5092ZM34.3219 23.4006L29.7939 24.2905C29.7315 24.3032 29.6819 24.2693 29.6697 24.2069L28.3224 17.3538C28.3097 17.2907 28.343 17.2418 28.4054 17.229L32.9333 16.3391C32.9951 16.3264 33.0448 16.3597 33.0575 16.4227L33.2756 17.5332C33.2877 17.5956 33.2544 17.6452 33.1926 17.6574L30.1495 18.256C30.1083 18.2644 30.0914 18.2887 30.0993 18.3311L30.3749 19.7329C30.3834 19.7742 30.4088 19.7911 30.45 19.7826L32.9836 19.2847C33.0454 19.2725 33.0956 19.3059 33.1078 19.3677L33.324 20.4685C33.3367 20.5308 33.3028 20.5805 33.241 20.5926L30.7068 21.0906C30.6656 21.0991 30.6487 21.1239 30.6572 21.1651L30.945 22.63C30.9529 22.6711 30.9783 22.6874 31.0195 22.679L34.0625 22.0811C34.1243 22.0684 34.1739 22.1023 34.1866 22.1647L34.4047 23.2758C34.417 23.3382 34.3837 23.3878 34.3219 23.4006Z" fill="black"/>
</g>
</g>
</g>
<defs>
<clipPath id="clip0_57_1646">
<rect width="44" height="44" fill="white"/>
</clipPath>
</defs>
</svg>
