<svg width="44" height="44" viewBox="0 0 44 44" fill="none" xmlns="http://www.w3.org/2000/svg">
<g id="OfertasIcon" clip-path="url(#clip0_31_23)">
<g id="SVGRepo_iconCarrier">
<g id="Group">
<path id="Vector" d="M18.7334 21.1582L18.4202 23.7875L20.0511 23.467L18.7649 21.1521L18.7334 21.1582Z" fill="white"/>
<path id="Vector_2" d="M44 21.9998L38.5603 17.5628L41.0527 11.0004L34.1226 9.8772L33 2.9478L26.4376 5.44016L22 0.000488281L17.5624 5.44025L11.0006 2.9478L9.8774 9.87729L2.948 11.0005L5.43976 17.5628L0 21.9998L5.43976 26.4369L2.948 32.9998L9.8774 34.123L11.0006 41.0524L17.5624 38.56L22 43.9998L26.4377 38.5601L33 41.0525L34.1225 34.1231L41.0526 32.9999L38.5602 26.437L44 21.9998ZM13.3004 27.6523C12.1996 27.8692 11.0443 27.6431 10.39 27.2221C10.3403 27.1887 10.3046 27.1197 10.3452 27.0476L10.9564 25.9892C10.9879 25.928 11.0503 25.9158 11.1097 25.9473C11.6507 26.2296 12.354 26.4581 13.1017 26.3109C13.8383 26.1661 14.1867 25.742 14.0892 25.2433C14.0068 24.8277 13.7063 24.6175 12.8436 24.6684L12.4596 24.6896C10.9875 24.7739 10.0556 24.257 9.81028 23.0109C9.55522 21.7126 10.3616 20.6584 11.8882 20.3586C12.8225 20.1744 13.75 20.2841 14.4315 20.6239C14.5024 20.6536 14.5205 20.6923 14.483 20.7754L14.0347 21.8453C14.0038 21.9053 13.9535 21.9259 13.8965 21.9047C13.2865 21.6581 12.7303 21.5733 12.1493 21.6878C11.5259 21.8101 11.2679 22.1955 11.3557 22.6419C11.435 23.0466 11.7761 23.2496 12.6098 23.2041L12.9932 23.183C14.4854 23.0945 15.385 23.6076 15.6364 24.8847C15.8873 26.1618 15.1281 27.2929 13.3004 27.6523ZM22.8748 25.6512L21.525 25.9172C21.4523 25.9311 21.4045 25.9087 21.3693 25.839L20.7217 24.6836L18.2499 25.1695L18.0978 26.4823C18.0918 26.5598 18.0566 26.5987 17.984 26.6132L16.6239 26.8803C16.5512 26.8949 16.5222 26.8572 16.5306 26.7906L17.6126 19.4595C17.6211 19.3923 17.6544 19.3432 17.7271 19.3292L19.0357 19.0717C19.1084 19.0572 19.158 19.0906 19.1914 19.1493L22.9269 25.5329C22.9597 25.5912 22.9475 25.6372 22.8748 25.6512ZM28.681 24.5092L24.081 25.4143C24.0186 25.4264 23.9689 25.3924 23.9562 25.3307L22.6082 18.4776C22.5961 18.4145 22.63 18.3649 22.6924 18.3528L24.0113 18.0935C24.0737 18.0807 24.1227 18.1141 24.1349 18.177L25.2235 23.7119C25.232 23.7531 25.2569 23.77 25.298 23.7622L28.4132 23.1496C28.4762 23.1369 28.5258 23.1697 28.538 23.2321L28.7645 24.385C28.7768 24.4474 28.744 24.4971 28.681 24.5092ZM34.3219 23.4005L29.7939 24.2905C29.7315 24.3032 29.6819 24.2692 29.6697 24.2068L28.3224 17.3538C28.3097 17.2907 28.343 17.2417 28.4054 17.229L32.9333 16.339C32.9951 16.3263 33.0448 16.3596 33.0575 16.4226L33.2756 17.5331C33.2877 17.5955 33.2544 17.6452 33.1926 17.6573L30.1495 18.2559C30.1083 18.2644 30.0914 18.2886 30.0993 18.331L30.3749 19.7329C30.3834 19.7741 30.4088 19.791 30.45 19.7825L32.9836 19.2846C33.0454 19.2724 33.0956 19.3058 33.1078 19.3676L33.324 20.4684C33.3367 20.5308 33.3028 20.5805 33.241 20.5926L30.7068 21.0905C30.6656 21.099 30.6487 21.1238 30.6572 21.165L30.945 22.6299C30.9529 22.6711 30.9783 22.6874 31.0195 22.679L34.0625 22.081C34.1243 22.0683 34.1739 22.1022 34.1866 22.1646L34.4047 23.2757C34.417 23.3381 34.3837 23.3878 34.3219 23.4005Z" fill="white"/>
</g>
</g>
</g>
<defs>
<clipPath id="clip0_31_23">
<rect width="44" height="44" fill="white"/>
</clipPath>
</defs>
</svg>
