<svg width="58" height="58" viewBox="0 0 58 58" fill="none" xmlns="http://www.w3.org/2000/svg">
<g id="RecipeIcon" clip-path="url(#clip0_52_524)">
<g id="SVGRepo_iconCarrier">
<g id="Group">
<g id="Group_2">
<path id="Vector" d="M46.3644 23.4792C45.2746 23.4794 44.3879 24.3659 44.3879 25.4557V29.498C44.3879 30.5878 45.2747 31.4743 46.3646 31.4744C47.4542 31.4743 48.3409 30.5878 48.3409 29.498L48.341 25.4554C48.341 24.3661 47.4541 23.4794 46.3644 23.4792Z" fill="white" stroke="white"/>
</g>
</g>
<g id="Group_3">
<g id="Group_4">
<path id="Vector_2" d="M34.7291 17.2138V53.8807L58 49.5303V12.8596L34.7291 17.2138ZM51.7867 29.4981C51.7867 31.8855 50.235 33.9161 48.0875 34.6379V46.9355H44.6418V34.6379C42.4943 33.9162 40.9424 31.8855 40.9423 29.4981V25.4557C40.9423 22.4661 43.3745 20.0337 46.3644 20.0336C49.3538 20.0337 51.7862 22.466 51.7867 25.4552V29.4981Z" fill="white" stroke="white"/>
</g>
</g>
<g id="Group_5">
<g id="Group_6">
<path id="Vector_3" d="M31.2835 17.7211H26.7168V54.3878H31.2835V17.7211Z" fill="white" stroke="white"/>
</g>
</g>
<g id="Group_7">
<g id="Group_8">
<path id="Vector_4" d="M53.6671 3.61221L33.6875 8.45091C31.6032 8.92816 30.0673 9.73858 29 10.9251C27.9326 9.73846 26.3966 8.92816 24.3123 8.45079L4.33286 3.61221L0.852295 9.517L26.3019 14.2754H31.6978L57.1458 9.51394L53.6671 3.61221Z" fill="white" stroke="white"/>
</g>
</g>
<g id="Group_9">
<g id="Group_10">
<path id="Vector_5" d="M0 12.863V49.5302L23.2709 53.8805V17.214L0 12.863ZM18.846 26.6245C18.846 28.7294 18.1555 30.5324 16.8492 31.8385C15.9158 32.7718 14.7276 33.3889 13.3579 33.6661V46.9354H9.91222V33.6661C8.54277 33.3888 7.35479 32.7718 6.42135 31.8385C5.11488 30.5323 4.42443 28.7293 4.42454 26.6244V20.6083H7.87021V26.6244C7.87021 27.7955 8.21153 28.7559 8.85757 29.4019C9.14837 29.6926 9.50339 29.9212 9.91211 30.0851V20.6078H13.3578V30.0854C13.7666 29.9213 14.1218 29.6928 14.4127 29.4021C15.0587 28.7561 15.4002 27.7957 15.4002 26.6245L15.4004 20.6078H18.846V26.6245Z" fill="white" stroke="white"/>
</g>
</g>
</g>
</g>
<defs>
<clipPath id="clip0_52_524">
<rect width="58" height="58" fill="white"/>
</clipPath>
</defs>
</svg>
