<svg width="33" height="32" viewBox="0 0 33 32" fill="none" xmlns="http://www.w3.org/2000/svg">
<g id="Frame">
<g id="SVGRepo_iconCarrier">
<path id="Vector" fill-rule="evenodd" clip-rule="evenodd" d="M6.59999 14.4C6.59999 12.2783 7.46918 10.2434 9.01636 8.74315C10.5635 7.24286 12.662 6.4 14.85 6.4C17.038 6.4 19.1364 7.24286 20.6836 8.74315C22.2308 10.2434 23.1 12.2783 23.1 14.4C23.1 16.5217 22.2308 18.5566 20.6836 20.0569C19.1364 21.5571 17.038 22.4 14.85 22.4C12.662 22.4 10.5635 21.5571 9.01636 20.0569C7.46918 18.5566 6.59999 16.5217 6.59999 14.4ZM14.85 3.2C13.0199 3.2 11.2159 3.62172 9.58688 4.4304C7.95781 5.23907 6.55023 6.41157 5.48014 7.85125C4.41005 9.29093 3.70808 10.9566 3.43209 12.7109C3.15609 14.4653 3.31396 16.2582 3.8927 17.9418C4.47143 19.6253 5.45446 21.1515 6.76077 22.3944C8.06708 23.6373 9.65928 24.5614 11.4062 25.0906C13.153 25.6197 15.0046 25.7387 16.8082 25.4379C18.6118 25.137 20.3159 24.4248 21.78 23.36C21.8269 23.4205 21.8782 23.4777 21.9334 23.5312L26.8834 28.3312C27.1946 28.6227 27.6114 28.7839 28.0441 28.7803C28.4767 28.7766 28.8905 28.6084 29.1964 28.3117C29.5024 28.0151 29.6759 27.6138 29.6797 27.1942C29.6834 26.7747 29.5171 26.3706 29.2165 26.0688L24.2665 21.2688C24.2114 21.2152 24.1524 21.1655 24.09 21.12C25.377 19.456 26.1607 17.4774 26.3533 15.4058C26.5459 13.3343 26.1399 11.2516 25.1806 9.39121C24.2214 7.53082 22.7468 5.96622 20.9222 4.87271C19.0976 3.7792 16.995 3.2 14.85 3.2Z" fill="white"/>
</g>
</g>
</svg>
