<svg width="75" height="71" viewBox="0 0 75 71" fill="none" xmlns="http://www.w3.org/2000/svg">
<g id="sideBarDeliveryIcon 1">
<path id="Vector" d="M52.9219 37.2751C46.7344 37.2751 41.6719 42.0676 41.6719 47.9251C41.6719 53.7826 46.7344 58.5751 52.9219 58.5751C59.1094 58.5751 64.1719 53.7826 64.1719 47.9251C64.1719 42.0676 59.2969 37.2751 52.9219 37.2751ZM52.9219 54.9363C48.8906 54.9363 45.6094 51.8301 45.6094 48.0138C45.6094 44.1976 48.8906 41.0913 52.9219 41.0913C56.9531 41.0913 60.2344 44.1976 60.2344 48.0138C60.2344 51.8301 57.1406 54.9363 52.9219 54.9363ZM47.9531 33.4588C48.7031 34.1688 50.0156 34.1688 50.7656 33.4588C51.5156 32.7488 51.5156 31.5063 50.7656 30.7963L42.4219 23.1638C41.7656 22.5426 40.6406 22.4538 39.8906 22.9863L28.1719 31.4176C27.7031 31.7726 27.4219 32.3051 27.4219 32.9263C27.4219 33.5476 27.7031 34.0801 28.2656 34.4351L33.5156 38.0738L29.9531 40.4701C27.7031 38.5176 24.8906 37.2751 21.7969 37.2751C15.6094 37.2751 10.5469 42.0676 10.5469 47.9251C10.5469 53.7826 15.6094 58.5751 21.7969 58.5751C27.9844 58.5751 33.0469 53.7826 33.0469 47.9251C33.0469 46.3276 32.6719 44.8188 32.0156 43.3988L37.8281 39.5826C38.3906 39.2276 38.6719 38.6951 38.6719 38.0738C38.6719 37.4526 38.3906 36.9201 37.8281 36.5651L32.4844 32.8376L40.7344 26.8913L47.9531 33.4588ZM29.0156 48.0138C29.0156 51.8301 25.7344 54.9363 21.7031 54.9363C17.6719 54.9363 14.3906 51.8301 14.3906 48.0138C14.3906 44.1976 17.6719 41.0913 21.7031 41.0913C23.4844 41.0913 25.0781 41.7126 26.3906 42.6888L20.5781 46.5051C19.7344 47.1263 19.4531 48.2801 20.1094 49.0788C20.4844 49.6113 21.1406 49.8776 21.7031 49.8776C22.0781 49.8776 22.4531 49.7888 22.8281 49.5226L28.6406 45.7063C28.9219 46.4163 29.0156 47.1263 29.0156 48.0138ZM50.1094 24.1401C53.5781 24.1401 56.3906 21.4776 56.3906 18.1938C56.3906 14.9101 53.5781 12.2476 50.1094 12.2476C46.6406 12.2476 43.8281 14.9101 43.8281 18.1938C43.8281 21.4776 46.6406 24.1401 50.1094 24.1401ZM50.1094 16.0638C51.4219 16.0638 52.4531 17.0401 52.4531 18.2826C52.4531 19.5251 51.4219 20.5013 50.1094 20.5013C48.7969 20.5013 47.7656 19.5251 47.7656 18.2826C47.7656 17.0401 48.7969 16.0638 50.1094 16.0638Z" fill="#FF8C04"/>
</g>
</svg>
